<svg width="110" height="69" viewBox="0 0 110 69" fill="none" xmlns="http://www.w3.org/2000/svg">
<g clip-path="url(#clip0)">
<g clip-path="url(#clip1)">
<path d="M55.2354 3.96362H56.0476L62.1184 12.7893V3.96362H62.9306V14.2031H62.1611L56.0049 5.29175V14.1602H55.2354V3.96362Z" fill="white"/>
<path d="M64.5557 10.4757C64.5557 8.41928 65.7527 6.70557 67.6765 6.70557C69.5576 6.70557 70.5836 8.20507 70.4126 10.3044H65.4107V10.4757C65.4107 12.1466 66.1375 13.689 67.8903 13.689C68.6598 13.689 69.3866 13.4319 69.9851 13.0035L70.3271 13.6461C69.6003 14.1602 68.7453 14.4173 67.8475 14.4173C65.5817 14.3745 64.5557 12.5751 64.5557 10.4757ZM69.6431 9.61889C69.6431 8.50497 69.0446 7.39105 67.6765 7.39105C66.394 7.39105 65.6672 8.37644 65.4534 9.61889H69.6431Z" fill="white"/>
<path d="M71.3096 6.87695H72.1646L73.9602 12.9607L75.884 6.87695H76.6535L78.5773 13.0035L80.3729 6.87695H81.1852L78.9621 14.2031H78.2353L76.2687 8.03371L74.3022 14.2031H73.5754L71.3096 6.87695Z" fill="white"/>
<path d="M88.1545 10.3472L84.7344 3.96362H85.6749L88.582 9.49036H88.6248L91.5319 3.96362H92.3869L89.0095 10.3472V14.2031H88.1973V10.3472H88.1545Z" fill="white"/>
<path d="M91.7021 10.5614C91.7021 8.71918 92.6854 6.70557 94.994 6.70557C97.3026 6.70557 98.3287 8.67634 98.3287 10.5186C98.3287 12.3608 97.3026 14.3745 94.994 14.3745C92.6854 14.3745 91.7021 12.4037 91.7021 10.5614ZM97.4736 10.5614C97.4736 8.9334 96.6186 7.4339 94.9513 7.4339C93.284 7.4339 92.5572 8.89056 92.5572 10.5614C92.5572 12.2323 93.3695 13.7318 95.0368 13.7318C96.6613 13.689 97.4736 12.1895 97.4736 10.5614Z" fill="white"/>
<path d="M99.825 6.87694H100.637V8.16223C100.894 7.60527 101.578 6.70557 102.604 6.70557C102.86 6.70557 103.074 6.74841 103.288 6.8341L103.074 7.60527C102.903 7.51958 102.689 7.47674 102.476 7.47674C101.45 7.47674 100.808 8.67634 100.595 9.10477V14.2031H99.7822L99.825 6.87694Z" fill="white"/>
<path d="M104.784 3.14966H105.596V14.2031H104.784V3.14966ZM105.639 10.0902L108.846 6.87699H109.829L106.58 10.0902L110 14.2031H109.017L105.639 10.0902Z" fill="white"/>
<path d="M55.2783 19.3442H57.5014C59.639 19.3442 61.007 20.4153 61.007 22.2147C61.007 24.057 59.7245 25.2137 57.4159 25.2137H56.1334V29.5409H55.2783V19.3442ZM57.3731 24.5282C59.297 24.5282 60.1093 23.6285 60.1093 22.3004C60.1093 21.0151 59.3397 20.1154 57.4159 20.1154H56.1334V24.5711H57.3731V24.5282Z" fill="white"/>
<path d="M62.2471 27.4416V22.2576H63.0593V27.2702C63.0593 28.3413 63.4441 29.0268 64.5557 29.0268C65.6244 29.0268 66.565 27.9985 66.7787 27.5701V22.2576H67.591V28.1699C67.591 28.6412 67.6338 29.1124 67.7193 29.5837H66.907C66.8215 29.1981 66.8215 28.7697 66.7787 28.3841C66.2657 29.1981 65.3252 29.7122 64.3419 29.7551C62.8456 29.7551 62.2471 28.7269 62.2471 27.4416Z" fill="white"/>
<path d="M69.5576 29.1982V18.5303H70.3699V22.9431C70.8829 22.3861 71.5669 22.0862 72.2937 22.0862C74.3885 22.0862 75.3718 23.7571 75.3718 25.8993C75.3718 27.9557 74.0038 29.7551 71.738 29.7551C71.0112 29.7551 70.2416 29.5838 69.5576 29.1982ZM74.5168 25.8993C74.5168 24.3141 73.9183 22.7717 72.1227 22.7717C71.4387 22.8146 70.7974 23.1145 70.3271 23.5857V28.7269C70.7547 28.9411 71.2677 29.0268 71.738 29.0268C73.6618 29.0696 74.5168 27.4416 74.5168 25.8993Z" fill="white"/>
<path d="M76.9961 18.5303H77.8084V29.5838H76.9961V18.5303Z" fill="white"/>
<path d="M79.989 20.0727C79.989 19.73 80.2456 19.4729 80.5876 19.4729C80.9296 19.4729 81.1861 19.73 81.1861 20.0727C81.1861 20.4154 80.9296 20.6725 80.5876 20.7153C80.2456 20.7153 79.989 20.4583 79.9463 20.1155C79.989 20.1155 79.989 20.1155 79.989 20.0727ZM80.2028 22.2577H81.0151V29.5838H80.2028V22.2577Z" fill="white"/>
<path d="M82.5107 25.8993C82.5107 23.5858 83.836 22.0863 85.7171 22.0863C86.5294 22.0435 87.2989 22.3434 87.8975 22.8575L87.4699 23.4573C86.9997 23.0289 86.3584 22.7718 85.6744 22.8147C84.0498 22.8147 83.323 24.2285 83.323 25.8993C83.323 27.5274 84.0498 29.0697 85.6744 29.0697C86.3584 29.0697 86.9997 28.8555 87.5554 28.4271L87.8975 29.0269C87.2562 29.541 86.4439 29.7981 85.6316 29.7981C83.5795 29.7552 82.5107 27.8701 82.5107 25.8993Z" fill="white"/>
<path d="M55.0215 44.9643V34.7249H57.2018V43.2078H61.0067V44.9643H55.0215Z" fill="white"/>
<path d="M63.6578 36.5242C62.9737 36.5242 62.418 36.0101 62.418 35.3246C62.418 34.6391 62.9737 34.125 63.615 34.125C63.615 34.125 63.615 34.125 63.6578 34.125C64.3418 34.125 64.8976 34.6391 64.8976 35.3246C64.8976 35.9672 64.3418 36.5242 63.6578 36.5242ZM62.6317 44.9643V37.4667H64.6838V44.9214C64.6838 44.9643 62.6317 44.9643 62.6317 44.9643Z" fill="white"/>
<path d="M68.4886 33.9109V38.0667C68.9589 37.5954 69.6429 37.2955 70.3269 37.2955C72.208 37.2955 73.4905 38.5808 73.4905 41.1513C73.4905 43.6791 71.7805 45.1357 69.5146 45.1357C68.4459 45.1786 67.4198 44.9644 66.4365 44.5359V33.9109H68.4886ZM68.4886 43.3792C68.8306 43.5077 69.1726 43.5506 69.5146 43.5506C70.6689 43.5506 71.3102 42.6937 71.3102 41.1513C71.3102 39.7375 70.8399 38.8807 69.7284 38.8807C69.2581 38.8807 68.7879 39.0949 68.4886 39.4376V43.3792Z" fill="white"/>
<path d="M79.2186 39.2662C78.9621 39.1377 78.7056 39.0948 78.4491 39.0948C77.5513 39.0948 76.9955 39.9088 76.8245 40.2516V44.9643H74.7725V37.4668H76.8245V38.495C77.2093 37.7667 77.8933 37.3383 78.7056 37.2954C79.0476 37.2954 79.3896 37.3383 79.7317 37.5096L79.2186 39.2662Z" fill="white"/>
<path d="M84.6061 44.9643C84.5206 44.7073 84.4779 44.4502 84.4779 44.1503C83.9648 44.7501 83.1953 45.1357 82.383 45.1357C81.1005 45.1357 80.1172 44.3645 80.1172 43.0364C80.1172 41.1085 82.1265 40.3802 84.0931 40.3802H84.3496V39.9517C84.3496 39.3091 84.0931 38.9235 83.1526 38.9235C82.4685 38.9235 81.7845 39.1806 81.2715 39.609L80.3737 38.3665C81.2287 37.6382 82.2975 37.2526 83.4091 37.2955C85.4611 37.2955 86.4017 38.0666 86.4017 40.0374V42.7365C86.4017 43.4648 86.4444 44.236 86.6154 44.9643H84.6061ZM84.3923 41.6226H84.1358C82.9388 41.6226 82.1265 41.9653 82.1265 42.865C82.1265 43.2935 82.5113 43.6791 82.9388 43.6362C82.9815 43.6362 83.0243 43.6362 83.0243 43.6362C83.5373 43.6362 84.0503 43.3792 84.3923 42.9936V41.6226Z" fill="white"/>
<path d="M92.4715 39.2662C92.215 39.1377 91.9585 39.0948 91.702 39.0948C90.8042 39.0948 90.2485 39.9088 90.0775 40.2516V44.9643H88.0254V37.4668H90.0775V38.495C90.4622 37.7667 91.1463 37.3383 91.9585 37.2954C92.3005 37.2954 92.6426 37.3383 92.9846 37.5096L92.4715 39.2662Z" fill="white"/>
<path d="M93.712 37.4668H95.8924L97.5597 42.3937H97.6452L99.1415 37.4668H101.236L98.1582 45.7355C97.5169 47.492 96.7046 48.5203 94.6953 48.5203C94.3105 48.5203 93.9258 48.4774 93.541 48.3917L93.8403 46.7637C94.054 46.8066 94.3105 46.8494 94.5671 46.8494C95.5931 46.8494 95.9779 46.3353 96.2771 45.5641L96.5336 44.7929L93.712 37.4668Z" fill="white"/>
<path d="M36.2532 35.0675C34.6714 34.2963 32.5766 33.9107 31.0803 33.0539C29.8833 32.3684 28.9855 31.2973 27.6602 30.6975C26.3349 30.0977 25.0096 29.5836 23.5988 29.198C20.9054 28.5554 18.6823 29.4122 17.9128 30.012C16.16 31.3402 15.3477 33.568 15.7752 35.7101C15.9035 36.7384 16.2883 37.7238 16.8868 38.5806C19.1526 41.751 23.3423 42.8221 26.7196 44.8357C26.8051 44.9214 26.9334 44.8785 27.0189 44.7928C27.5747 43.9788 28.0449 43.2933 28.9855 42.9078C29.926 42.5222 31.4651 42.6507 32.7476 42.6935C34.0729 42.7792 35.5265 42.6507 36.0395 41.9224C36.638 41.1083 36.5953 39.3946 35.6975 38.8805C35.2272 38.6235 34.5004 38.5806 33.9874 38.3664C33.6026 38.1522 33.2606 37.8094 33.0896 37.4239C32.8331 36.9954 32.8331 36.4813 32.9614 36.01C33.1751 35.6244 33.6882 35.753 34.1157 35.8387C34.9707 36.0529 36.3388 36.2242 37.151 35.8815C37.4075 35.7958 36.5525 35.196 36.2532 35.0675ZM27.7884 34.5962C27.7029 34.9818 27.4892 35.7101 27.1044 35.753C26.7196 35.7958 26.4631 35.4102 26.2066 35.2389C25.6936 34.9818 25.1378 34.7676 24.5393 34.6391C24.0263 34.4677 23.3423 34.2535 23.1285 33.7822C22.8292 33.0539 23.5133 32.7111 24.0263 32.5826C24.4966 32.4541 24.9668 32.3684 25.4798 32.3684C26.3776 32.3255 27.2754 32.4541 27.5747 33.0539C27.8739 33.5251 27.9167 34.0821 27.7884 34.5962Z" fill="white"/>
<path d="M2.43705 37.2954C2.43705 37.0812 2.52256 36.9098 2.65081 36.7384C4.78839 34.2535 7.73825 32.5827 10.9446 31.94C11.5859 31.8543 12.0562 31.8972 12.1417 32.1542C12.3127 32.6255 11.9707 32.8826 11.5004 33.1396C3.7196 37.8523 4.27537 44.8357 4.18987 47.6634C4.23262 48.8201 3.37759 49.0343 3.16383 48.4774C1.88128 44.9214 1.62477 41.0227 2.43705 37.2954Z" fill="white"/>
<path d="M7.73849 27.013C7.86675 26.8416 8.03775 26.7559 8.25151 26.7131C10.9876 26.0276 13.852 26.2847 16.4598 27.3986C16.9301 27.6128 17.1866 27.9127 16.8446 28.1269C16.0323 28.5982 15.2628 29.198 14.536 29.7978C14.3222 29.9263 14.023 30.012 13.7665 29.9692C11.2014 29.6264 9.87607 29.4122 6.07118 30.8689C5.47266 31.1259 4.95964 30.7832 5.21615 30.3119C5.94292 29.1551 6.75521 28.0412 7.73849 27.013Z" fill="white"/>
<path d="M12.6975 24.014C12.0562 23.9283 12.0135 23.4571 12.3127 23.2857C13.2533 22.643 14.2793 22.1289 15.3481 21.7005C15.6046 21.572 15.9039 21.5291 16.2031 21.572C17.0581 21.6577 18.5117 22.2575 20.1363 23.4142C22.1028 24.828 23.8557 27.4843 22.6586 27.2701C22.2311 27.1844 21.8036 27.0987 21.3761 27.0987C20.4783 27.013 19.9225 27.0987 19.495 27.0559C19.324 27.013 19.153 26.9273 19.0675 26.7988C17.4002 25.2993 15.5191 24.3568 12.6975 24.014Z" fill="white"/>
<path d="M44.2477 47.3206C44.0767 47.8776 43.863 48.5631 43.3927 48.2632C42.0247 47.2349 40.4856 46.4209 38.9038 45.7783C38.8183 45.7354 38.8183 45.6069 38.861 45.5641C38.9893 45.2642 39.0748 45.0071 39.1175 44.6644C39.2031 44.3645 39.3741 44.1074 39.5451 43.8932C39.9726 42.9935 40.2718 42.0509 40.3573 41.0656C40.4428 40.2944 40.4001 39.5661 40.2291 38.8377C40.1008 38.5378 40.0153 38.1951 39.9726 37.8523C39.9726 37.5524 40.1436 37.2097 40.1436 36.8241C40.2291 35.753 38.861 34.8533 38.1343 34.5106C36.4669 33.7394 34.6714 33.0111 32.8331 32.0685C31.807 31.5116 30.9947 30.312 30.1397 29.7122C29.3274 29.0695 26.6341 27.9985 25.5653 27.6986C25.3943 27.6557 25.2233 27.5272 25.1805 27.313C24.6248 24.8281 23.214 22.6002 21.1619 21.0579C20.3923 20.4581 21.2474 20.1582 22.2734 20.0725C38.6473 19.4727 48.0099 34.5534 44.2477 47.3206Z" fill="white"/>
<path d="M37.6214 40.0803C37.6214 39.9946 37.5787 39.6947 37.5787 39.6519C37.6642 39.4376 37.8352 39.3091 38.0062 39.1806C38.2199 39.0092 38.4337 38.8807 38.6475 38.7522C38.6902 38.7093 38.733 38.795 38.733 38.8378C39.3315 39.7375 39.1177 42.0082 38.6902 43.0793C38.6475 43.2078 38.562 43.2507 38.5192 43.165C38.3054 42.6937 38.0062 42.3081 37.5787 42.0082C37.5359 41.9654 37.4932 41.8797 37.4932 41.8369C37.6642 41.237 37.7069 40.6801 37.6214 40.0803Z" fill="white"/>
<path d="M30.1825 45.6497C30.268 45.3069 30.4818 45.0499 30.7383 44.8785C31.2941 44.5357 32.1918 44.5357 33.0896 44.4501C33.9019 44.4501 34.7142 44.3215 35.441 44.0645C35.8257 43.8931 36.1677 43.4218 36.7235 43.6789C36.98 43.8074 37.151 44.0216 37.2365 44.2787C37.322 44.5786 37.3648 44.8785 37.3648 45.1784C37.2793 46.2495 36.4242 46.7636 36.2532 47.749C36.2532 47.9203 36.2105 48.0917 36.125 48.2202C35.4837 48.9057 34.2012 48.7344 33.0041 48.6487C32.6193 48.6487 32.2346 48.563 31.8926 48.4773C31.6788 48.3488 31.5078 48.2202 31.3368 48.0489C30.9948 47.7061 30.6955 47.3634 30.3963 47.0206C30.2253 46.8493 30.0543 46.6779 29.9688 46.4637C30.0115 46.1638 30.097 45.9067 30.1825 45.6497Z" fill="white"/>
<path d="M9.7471 58.117C9.40509 57.8171 9.10583 57.4744 8.89207 57.0459C6.88275 53.8327 5.7712 42.5222 8.3363 38.6663C9.14858 37.3382 10.0036 37.938 9.7471 38.9662C9.23408 41.2797 9.53335 42.6079 10.6876 45.1356C12.4832 48.9058 17.9554 54.1326 19.4517 56.0605C21.9313 59.3166 22.7863 61.673 22.7863 62.3156C22.7863 62.7869 22.6581 63.1296 21.8031 63.0439C17.3569 62.7012 13.1245 60.9446 9.7471 58.117Z" fill="white"/>
<path d="M12.313 42.8221C11.2869 40.3801 11.3297 37.6381 12.4412 35.2818C12.7405 34.682 13.0397 34.3392 13.4245 34.4249C13.852 34.5534 13.9375 34.9819 14.023 35.7959C14.4505 42.5222 18.5119 44.7929 23.6421 47.1921C27.6608 49.2486 32.2352 51.6049 36.0829 57.3459C36.6814 58.1599 36.7669 58.674 36.0829 59.1453C33.817 60.7733 31.2519 61.9729 28.5158 62.5727C28.0456 62.7012 27.5753 62.6156 27.1478 61.5445C22.8726 50.3625 15.6048 50.8337 12.313 42.8221Z" fill="white"/>
<path d="M39.0327 56.4891C38.3914 57.1317 38.0066 56.6176 37.7929 56.1892C36.9806 54.3041 35.869 52.5476 34.5437 51.0052C34.4155 50.8767 34.4155 50.6625 34.501 50.5339C34.5865 50.4482 34.7148 50.4054 34.843 50.4482C35.2705 50.4911 35.7408 50.4482 36.1256 50.234C36.7241 49.8484 37.1516 49.2486 37.3226 48.5632C37.4936 47.9205 37.4936 47.7063 37.9211 47.7063C38.0494 47.7063 38.1776 47.7063 38.3059 47.7491C38.8189 47.9205 39.2892 48.2204 39.6739 48.5632C40.7 49.3772 41.5978 50.3626 42.3245 51.4765C42.4528 51.7335 42.41 52.0334 42.239 52.2477C41.3413 53.7472 40.2725 55.2038 39.0327 56.4891Z" fill="white"/>
</g>
</g>
<defs>
<clipPath id="clip0">
<rect width="110" height="68.3064" fill="white"/>
</clipPath>
<clipPath id="clip1">
<rect width="110" height="68.2407" fill="white"/>
</clipPath>
</defs>
</svg>
